<svg id="svg" version="1.1" xmlns="http://www.w3.org/2000/svg" xmlns:xlink="http://www.w3.org/1999/xlink" width="400" height="275.55555555555554" viewBox="0, 0, 400,275.55555555555554"><g id="svgg"><path id="path0" d="M253.823 151.367 C 252.181 152.323,252.107 152.931,252.047 165.947 C 252.017 172.539,251.922 178.214,251.835 178.559 C 251.467 180.028,249.382 178.707,249.069 176.805 C 248.972 176.220,248.603 175.121,248.248 174.363 C 247.893 173.604,247.519 172.494,247.417 171.894 C 247.315 171.295,247.004 170.359,246.726 169.814 C 246.448 169.269,246.137 168.333,246.034 167.734 C 245.932 167.134,245.636 166.334,245.377 165.955 C 245.118 165.575,244.761 164.617,244.583 163.826 C 243.514 159.080,239.904 156.600,238.249 159.476 C 237.335 161.065,237.936 165.953,239.404 168.876 C 239.640 169.345,239.948 170.338,240.090 171.081 C 240.231 171.825,240.496 172.805,240.680 173.260 C 241.374 174.982,243.129 181.792,244.017 186.210 C 244.970 190.951,243.607 195.340,241.550 194.159 C 240.865 193.766,239.008 191.358,239.008 190.863 C 239.008 190.762,238.695 190.270,238.314 189.770 C 237.933 189.270,237.543 188.474,237.449 188.002 C 237.348 187.498,236.981 186.960,236.557 186.698 C 236.161 186.453,235.589 186.048,235.286 185.799 C 232.938 183.866,230.602 184.012,228.119 186.245 C 227.360 186.926,226.940 187.409,227.185 187.318 C 227.805 187.086,230.810 190.162,230.633 190.849 C 230.546 191.189,230.718 191.427,231.177 191.602 C 231.872 191.866,233.452 194.902,234.050 197.121 C 234.207 197.706,234.467 198.266,234.627 198.365 C 234.787 198.464,235.148 199.081,235.430 199.738 C 235.711 200.394,236.197 201.186,236.509 201.499 C 236.822 201.812,237.078 202.316,237.078 202.620 C 237.078 204.133,244.554 212.069,247.720 213.916 C 248.643 214.455,248.600 214.330,249.498 219.143 C 250.082 222.276,250.293 246.281,249.763 249.345 C 249.421 251.329,248.799 272.805,249.039 274.363 L 249.241 275.672 262.527 275.672 L 275.813 275.672 276.131 274.656 C 276.342 273.980,276.369 273.173,276.210 272.244 C 276.080 271.476,275.765 268.739,275.512 266.161 C 275.258 263.584,274.948 261.202,274.822 260.868 C 274.696 260.535,274.516 258.798,274.421 257.009 C 274.326 255.220,274.018 252.764,273.737 251.551 C 273.455 250.338,273.017 246.740,272.762 243.556 C 272.507 240.372,272.162 237.519,271.996 237.216 C 271.830 236.912,271.475 234.121,271.207 231.013 C 270.939 227.905,270.602 224.680,270.459 223.846 C 270.116 221.847,270.112 216.315,270.452 214.748 C 270.600 214.066,270.798 213.012,270.892 212.405 C 270.986 211.799,271.359 210.711,271.720 209.989 C 272.082 209.266,272.566 207.902,272.797 206.956 C 273.028 206.011,273.389 204.804,273.601 204.273 C 273.812 203.742,274.183 202.477,274.425 201.460 C 274.666 200.444,275.045 199.265,275.266 198.841 C 275.488 198.417,275.669 197.571,275.670 196.960 C 275.676 193.300,276.742 188.677,278.307 185.527 C 279.884 182.352,281.461 178.929,281.461 178.680 C 281.461 178.546,281.766 177.988,282.138 177.439 C 282.510 176.890,282.942 175.974,283.096 175.402 C 283.251 174.830,283.628 173.871,283.935 173.270 C 284.242 172.670,284.493 171.704,284.493 171.125 C 284.493 166.628,280.789 167.077,278.262 171.881 C 277.943 172.488,277.357 173.604,276.960 174.363 C 276.563 175.121,275.864 176.237,275.407 176.844 C 274.950 177.450,274.336 178.442,274.044 179.049 C 273.751 179.655,273.157 180.555,272.723 181.048 C 270.805 183.225,268.948 181.079,270.392 178.356 C 270.673 177.827,270.986 176.856,271.089 176.197 C 271.192 175.539,271.590 174.253,271.975 173.340 C 272.359 172.427,272.778 170.795,272.905 169.713 C 273.032 168.631,273.399 167.164,273.721 166.452 C 275.219 163.137,275.009 157.480,273.376 157.178 C 271.344 156.801,268.709 159.736,268.106 163.047 C 267.997 163.647,267.657 164.627,267.352 165.225 C 267.047 165.823,266.683 167.122,266.543 168.111 C 266.403 169.100,266.167 170.054,266.020 170.231 C 265.733 170.578,264.526 173.935,264.041 175.741 C 263.503 177.738,263.236 178.286,262.414 179.074 L 261.600 179.853 260.743 178.995 C 259.710 177.962,259.564 176.744,259.147 165.679 C 258.692 153.605,257.141 149.435,253.823 151.367 M206.767 165.702 C 206.936 166.019,207.129 166.223,207.196 166.155 C 207.389 165.962,206.998 165.127,206.715 165.127 C 206.574 165.127,206.597 165.386,206.767 165.702 M288.449 189.936 C 288.124 190.068,287.720 190.587,287.553 191.090 C 287.386 191.594,286.948 192.599,286.579 193.325 C 286.211 194.051,285.826 195.353,285.724 196.220 C 285.621 197.086,285.316 198.663,285.045 199.724 C 284.773 200.786,284.471 203.081,284.374 204.824 C 284.141 208.984,283.935 210.441,283.623 210.129 C 283.107 209.613,282.780 204.649,282.963 200.088 C 283.178 194.717,282.967 193.469,281.740 192.834 C 278.695 191.260,276.797 194.652,276.780 201.699 C 276.777 202.936,276.595 204.888,276.375 206.037 C 276.155 207.186,275.838 210.205,275.670 212.746 C 275.490 215.461,275.149 218.164,274.843 219.297 C 272.544 227.813,273.959 236.903,278.626 243.595 C 279.276 244.525,279.807 245.376,279.807 245.484 C 279.807 245.593,280.100 246.265,280.458 246.978 C 280.828 247.713,281.198 249.094,281.312 250.165 C 281.424 251.204,281.693 252.623,281.911 253.319 C 282.585 255.467,283.976 260.576,284.283 262.026 C 284.443 262.784,284.855 264.149,285.198 265.059 C 285.541 265.968,286.018 268.015,286.258 269.607 C 286.497 271.199,286.911 273.215,287.178 274.087 L 287.664 275.672 294.442 275.672 L 301.220 275.672 301.534 272.984 C 301.706 271.506,302.050 268.551,302.298 266.419 C 302.891 261.318,302.768 258.197,301.930 257.021 C 301.401 256.280,300.773 253.976,300.017 250.006 C 299.869 249.227,301.168 241.169,301.561 240.426 C 301.838 239.905,302.528 236.307,302.971 233.081 C 303.167 231.651,303.222 227.744,303.126 221.971 C 303.007 214.797,303.057 212.654,303.384 210.944 C 304.152 206.933,303.682 202.472,302.421 201.797 C 300.788 200.923,299.564 201.760,299.121 204.055 C 298.936 205.009,298.627 206.037,298.434 206.340 C 298.241 206.644,297.993 208.242,297.883 209.892 C 297.774 211.543,297.552 213.217,297.390 213.614 C 296.568 215.633,296.467 210.633,297.191 203.722 C 297.741 198.460,297.668 196.325,296.883 194.759 C 296.149 193.294,296.034 193.210,294.004 192.642 C 292.841 192.317,292.549 192.096,292.137 191.226 C 291.471 189.823,290.003 189.310,288.449 189.936 M77.416 190.967 C 77.162 191.538,76.646 192.688,76.269 193.523 C 75.891 194.357,75.448 196.008,75.283 197.193 C 75.118 198.377,74.853 199.589,74.694 199.886 C 74.535 200.184,74.284 202.130,74.136 204.211 C 73.850 208.243,73.519 210.210,73.243 209.511 C 72.493 207.606,72.378 206.298,72.451 200.517 L 72.528 194.417 71.667 193.556 C 68.812 190.701,66.961 193.667,66.440 201.930 C 66.296 204.204,66.047 206.499,65.885 207.030 C 65.723 207.560,65.415 210.414,65.199 213.370 C 64.980 216.381,64.624 219.291,64.389 219.986 C 61.935 227.260,63.629 236.906,68.685 244.437 C 70.337 246.897,71.000 248.555,71.255 250.861 C 71.364 251.847,72.017 254.576,72.706 256.926 C 73.395 259.276,74.059 261.795,74.181 262.523 C 74.303 263.252,74.637 264.492,74.924 265.280 C 75.210 266.068,75.868 268.728,76.385 271.192 L 77.326 275.672 86.906 275.672 C 92.174 275.672,96.485 275.566,96.485 275.437 C 96.485 274.937,95.868 273.467,95.658 273.467 C 95.301 273.467,94.831 271.826,94.831 270.579 C 94.831 269.947,94.532 268.428,94.166 267.205 C 93.800 265.982,93.409 264.256,93.299 263.370 C 93.188 262.483,92.869 261.446,92.589 261.065 C 92.310 260.684,91.959 259.721,91.809 258.925 C 91.660 258.129,91.358 257.131,91.138 256.706 C 90.593 255.652,89.318 249.890,89.318 248.481 C 89.318 247.515,90.057 244.242,91.208 240.110 C 92.529 235.372,93.058 229.144,92.626 223.432 C 92.293 219.026,92.444 215.586,93.070 213.330 C 93.191 212.895,88.007 207.422,87.733 207.695 C 87.670 207.758,87.627 208.936,87.638 210.311 C 87.652 212.138,87.518 213.165,87.142 214.122 L 86.628 215.433 86.321 213.919 C 86.113 212.893,86.091 211.339,86.250 209.097 L 86.486 205.789 85.702 204.686 C 85.026 203.736,81.599 197.041,81.599 196.670 C 81.599 196.304,79.511 192.185,79.009 191.560 C 78.690 191.163,78.305 190.634,78.153 190.384 C 77.920 189.999,77.806 190.090,77.416 190.967 M179.671 193.336 C 179.752 193.665,179.933 194.083,180.074 194.264 C 180.215 194.445,180.431 195.189,180.553 195.918 L 180.776 197.243 180.808 195.975 C 180.826 195.277,180.708 194.326,180.546 193.861 C 180.195 192.855,179.444 192.404,179.671 193.336 M181.253 199.586 C 181.570 200.651,182.177 202.068,182.316 202.068 C 182.462 202.068,181.417 199.242,181.196 199.035 C 181.114 198.959,181.140 199.207,181.253 199.586 M182.644 202.895 C 182.753 203.274,183.216 204.327,183.672 205.237 C 184.128 206.146,184.724 207.539,184.998 208.333 C 185.271 209.127,185.904 210.368,186.405 211.091 C 186.905 211.814,187.603 212.963,187.955 213.646 C 188.325 214.362,188.531 214.595,188.443 214.197 C 188.360 213.818,188.290 213.353,188.288 213.164 C 188.286 212.975,187.867 212.355,187.357 211.786 C 186.190 210.484,185.662 209.452,184.721 206.633 C 184.029 204.560,182.150 201.179,182.644 202.895 M346.244 208.059 C 344.571 208.704,344.534 210.513,346.128 213.769 C 346.495 214.519,346.795 215.270,346.795 215.438 C 346.795 215.606,347.105 216.164,347.484 216.678 C 347.864 217.192,348.174 217.930,348.174 218.319 C 348.174 218.708,348.484 219.608,348.863 220.320 C 349.242 221.032,349.552 221.862,349.552 222.165 C 349.552 222.467,349.862 223.049,350.242 223.458 C 350.985 224.261,351.615 226.132,351.363 226.789 C 351.137 227.380,350.353 227.126,349.850 226.299 C 348.911 224.755,348.260 223.920,346.751 222.329 C 345.888 221.420,344.552 220.009,343.783 219.195 C 343.014 218.380,342.385 217.596,342.385 217.451 C 342.385 216.963,339.272 213.921,338.773 213.921 C 338.188 213.921,337.017 215.400,336.769 216.452 C 336.536 217.438,336.852 218.185,338.696 221.014 C 339.552 222.327,340.411 223.783,340.607 224.250 C 340.802 224.717,341.718 225.840,342.644 226.747 C 348.263 232.250,351.151 240.681,348.414 243.594 C 347.480 244.588,345.904 244.175,342.892 242.148 C 340.054 240.239,333.904 240.512,333.609 242.561 C 333.399 244.021,333.728 244.377,336.149 245.319 C 337.428 245.817,338.746 246.513,339.078 246.865 C 339.409 247.218,340.002 247.588,340.395 247.686 C 340.789 247.785,341.447 248.106,341.859 248.399 C 342.271 248.692,342.680 248.932,342.769 248.932 C 342.858 248.932,343.894 249.865,345.070 251.006 C 346.624 252.513,347.510 253.155,348.312 253.356 C 351.356 254.121,356.566 256.400,356.962 257.141 C 357.564 258.265,357.899 261.111,358.106 266.850 C 358.223 270.110,358.409 273.429,358.519 274.225 L 358.719 275.672 368.026 275.672 L 377.334 275.672 377.519 274.684 C 377.653 273.971,377.573 273.496,377.231 272.974 C 376.931 272.517,376.669 271.295,376.517 269.643 C 376.381 268.159,376.048 266.515,375.743 265.827 C 375.450 265.163,375.070 263.850,374.901 262.909 C 374.731 261.969,374.432 261.013,374.237 260.786 C 373.597 260.042,373.471 258.273,373.512 250.565 C 373.554 242.514,373.249 238.290,372.548 237.220 C 372.137 236.592,371.773 234.762,371.424 231.564 C 371.194 229.450,368.466 227.107,366.301 227.164 C 363.549 227.237,363.229 227.063,363.439 225.612 C 363.612 224.415,362.557 221.983,360.961 219.905 C 358.176 216.276,353.963 213.742,355.041 216.343 C 355.426 217.274,355.549 219.318,355.239 219.629 C 354.933 219.935,354.238 218.907,354.238 218.148 C 354.238 217.783,353.953 217.331,353.560 217.073 C 353.187 216.829,352.797 216.361,352.693 216.033 C 351.992 213.822,348.960 208.186,348.389 208.033 C 347.637 207.831,346.810 207.842,346.244 208.059 M353.839 208.779 C 352.729 210.233,353.373 211.034,355.118 210.370 C 356.136 209.983,356.212 209.729,355.607 208.733 C 354.936 207.630,354.710 207.636,353.839 208.779 M189.235 216.954 C 189.305 217.333,189.448 218.670,189.553 219.926 C 189.657 221.182,189.823 222.258,189.921 222.319 C 190.177 222.477,189.702 217.774,189.379 216.954 L 189.108 216.265 189.235 216.954 " stroke="none" fill="#2aca93" fill-rule="evenodd"></path><path id="path1" d="M101.240 151.688 C 101.090 151.878,100.671 152.653,100.311 153.411 L 99.655 154.790 99.653 166.824 C 99.651 178.204,99.622 178.890,99.134 179.430 C 98.123 180.546,96.781 179.309,96.244 176.767 C 96.075 175.967,95.762 175.036,95.549 174.699 C 95.335 174.362,95.072 173.653,94.962 173.122 C 94.853 172.591,94.526 171.687,94.235 171.112 C 93.944 170.537,93.575 169.362,93.416 168.502 C 93.257 167.641,92.890 166.473,92.601 165.905 C 92.311 165.338,92.074 164.638,92.074 164.350 C 92.074 161.406,87.647 157.405,86.182 159.025 C 85.214 160.094,85.529 165.609,86.685 167.864 C 86.886 168.254,87.198 169.318,87.379 170.227 C 87.560 171.137,87.931 172.321,88.204 172.859 C 88.476 173.397,88.788 174.389,88.898 175.064 C 89.007 175.740,89.325 176.817,89.603 177.459 C 89.882 178.101,90.191 179.217,90.290 179.940 C 90.389 180.663,90.785 182.185,91.169 183.322 C 92.548 187.406,92.236 193.185,90.576 194.307 L 89.617 194.955 88.786 194.363 C 87.946 193.764,86.663 192.136,85.794 190.565 C 85.533 190.095,85.029 189.184,84.674 188.542 C 83.275 186.018,81.636 184.976,79.063 184.976 C 76.028 184.976,75.145 186.609,77.099 188.609 C 77.656 189.180,78.391 190.177,78.732 190.826 C 79.725 192.714,82.880 199.059,83.499 200.414 C 85.230 204.199,91.258 211.520,93.135 212.116 C 93.461 212.220,93.728 212.410,93.728 212.539 C 93.728 212.668,94.166 213.044,94.701 213.375 C 97.852 215.322,98.633 230.147,97.039 257.753 C 96.139 273.346,96.234 275.662,97.774 275.669 C 98.116 275.671,98.429 275.464,98.501 275.190 C 98.621 274.730,98.628 274.730,98.659 275.190 C 98.700 275.820,100.345 275.887,100.345 275.258 C 100.345 274.899,101.539 274.845,109.442 274.845 C 117.344 274.845,118.539 274.899,118.539 275.258 C 118.539 275.587,118.937 275.672,120.469 275.672 C 121.680 275.672,122.398 275.560,122.398 275.371 C 122.398 275.205,122.649 274.752,122.955 274.363 C 123.260 273.974,123.450 273.458,123.376 273.217 C 123.303 272.975,123.113 271.166,122.956 269.195 C 122.798 267.225,122.434 264.310,122.145 262.717 C 121.857 261.124,121.550 258.505,121.463 256.898 C 121.377 255.290,121.065 252.685,120.771 251.109 C 120.477 249.532,120.160 246.816,120.065 245.072 C 119.970 243.329,119.705 240.942,119.474 239.768 C 119.082 237.773,119.128 236.898,119.608 237.195 C 119.866 237.355,119.698 234.268,119.369 232.805 C 119.233 232.198,119.037 230.400,118.933 228.808 C 118.787 226.553,118.632 225.788,118.232 225.348 C 117.189 224.199,116.904 215.041,117.864 213.508 C 118.053 213.205,118.348 212.283,118.519 211.461 C 118.690 210.638,119.058 209.584,119.338 209.118 C 119.618 208.652,119.918 207.627,120.005 206.842 C 120.091 206.056,120.425 204.899,120.746 204.270 C 121.067 203.641,121.498 202.175,121.704 201.012 C 121.909 199.849,122.219 198.530,122.391 198.082 C 122.563 197.633,122.884 195.834,123.104 194.084 C 123.542 190.604,124.229 188.057,125.293 185.963 C 125.672 185.217,125.982 184.457,125.982 184.274 C 125.982 184.091,126.152 183.800,126.360 183.627 C 126.567 183.455,126.959 182.727,127.230 182.008 C 127.500 181.290,127.942 180.418,128.211 180.070 C 128.480 179.721,128.785 179.039,128.887 178.554 C 128.990 178.068,129.294 177.298,129.562 176.844 C 129.831 176.389,130.206 175.530,130.396 174.936 C 130.586 174.342,130.989 173.437,131.291 172.925 C 132.503 170.871,131.588 168.160,129.682 168.160 C 128.822 168.160,126.512 170.520,126.007 171.915 C 125.810 172.460,125.383 173.322,125.057 173.830 C 124.385 174.880,123.195 176.830,122.147 178.598 C 119.127 183.694,115.198 183.034,117.824 177.872 C 118.189 177.155,118.574 175.824,118.680 174.914 C 118.785 174.005,119.042 172.931,119.250 172.528 C 119.458 172.126,119.768 170.885,119.940 169.771 C 120.111 168.658,120.536 167.064,120.885 166.230 C 121.595 164.532,122.047 159.802,121.635 158.374 C 121.148 156.683,117.161 157.830,117.161 159.660 C 117.161 159.842,116.916 160.496,116.618 161.113 C 116.319 161.730,115.834 162.917,115.540 163.750 C 115.247 164.583,114.814 165.762,114.579 166.368 C 114.345 166.975,114.147 167.831,114.140 168.271 C 114.134 168.711,113.829 169.704,113.464 170.477 C 113.099 171.249,112.711 172.378,112.603 172.984 C 112.495 173.591,112.185 174.459,111.913 174.914 C 111.642 175.369,111.283 176.485,111.117 177.395 C 110.651 179.944,109.276 180.717,107.812 179.254 C 106.926 178.367,106.795 177.117,106.528 166.988 C 106.443 163.766,106.203 160.200,105.994 159.063 C 105.786 157.926,105.530 156.375,105.425 155.617 C 105.003 152.557,102.454 150.164,101.240 151.688 M219.329 208.812 C 218.584 209.949,219.063 213.576,220.112 214.736 C 220.742 215.431,221.289 218.229,220.912 218.827 C 220.319 219.769,219.784 219.524,219.309 218.093 C 219.058 217.338,218.680 216.577,218.469 216.402 C 218.258 216.226,217.939 215.627,217.760 215.071 C 217.582 214.515,217.280 213.873,217.091 213.646 C 216.901 213.418,216.481 212.674,216.158 211.992 C 214.398 208.282,214.200 208.165,212.786 210.005 C 211.330 211.898,211.243 212.664,212.265 214.606 C 212.731 215.492,213.237 216.786,213.390 217.481 C 213.543 218.177,214.284 219.965,215.036 221.454 C 215.787 222.944,216.402 224.341,216.402 224.558 C 216.402 224.776,216.651 225.166,216.954 225.426 C 217.512 225.903,217.748 227.798,217.285 228.084 C 216.873 228.339,213.596 224.717,213.249 223.622 C 213.013 222.878,210.684 221.027,210.453 221.401 C 210.113 221.951,210.293 224.778,210.735 225.835 C 210.972 226.399,211.165 227.061,211.165 227.307 C 211.165 227.881,213.465 233.850,214.229 235.258 C 214.698 236.122,214.835 236.953,214.932 239.510 C 215.015 241.682,215.222 243.168,215.587 244.208 C 215.881 245.044,216.202 246.356,216.301 247.123 C 216.400 247.890,216.693 248.828,216.952 249.207 C 217.212 249.586,217.501 250.473,217.594 251.177 C 217.887 253.407,218.453 254.194,220.835 255.691 C 223.441 257.327,223.566 257.613,223.568 261.913 C 223.569 263.518,223.652 267.271,223.751 270.252 L 223.933 275.672 233.400 275.672 L 242.867 275.672 242.867 274.725 C 242.867 274.204,242.733 273.429,242.568 273.002 C 242.404 272.575,242.036 270.845,241.750 269.156 C 241.464 267.468,240.978 265.447,240.670 264.666 C 240.362 263.885,240.110 262.874,240.110 262.419 C 240.110 261.963,239.877 261.130,239.592 260.568 C 238.775 258.954,238.488 255.639,238.655 249.758 C 238.818 244.067,238.414 238.274,237.782 237.237 C 237.590 236.922,237.286 235.486,237.106 234.045 C 236.924 232.585,236.540 230.966,236.239 230.384 C 235.786 229.509,235.700 228.779,235.700 225.829 C 235.700 217.714,234.323 213.961,231.978 215.680 C 231.501 216.030,231.440 216.337,231.524 217.966 C 231.908 225.372,231.304 228.672,229.689 228.003 C 228.814 227.641,228.705 227.364,228.103 223.983 C 227.995 223.377,227.748 222.565,227.553 222.179 C 227.358 221.794,226.995 220.695,226.747 219.738 C 226.499 218.781,226.055 217.548,225.760 216.998 C 225.465 216.447,225.224 215.796,225.224 215.549 C 225.224 215.303,224.926 214.662,224.562 214.126 C 224.199 213.590,223.811 212.869,223.702 212.524 C 222.784 209.633,220.218 207.454,219.329 208.812 " stroke="none" fill="#ea1232" fill-rule="evenodd"></path><path id="path2" d="M0.000 137.836 L 0.000 275.672 38.594 275.672 C 71.866 275.672,77.188 275.618,77.188 275.278 C 77.188 274.500,75.224 265.924,74.830 264.980 C 74.608 264.449,74.322 263.382,74.193 262.607 C 74.065 261.833,73.396 259.276,72.706 256.926 C 72.017 254.576,71.364 251.847,71.255 250.861 C 71.000 248.555,70.337 246.897,68.685 244.437 C 63.629 236.906,61.935 227.260,64.389 219.986 C 64.624 219.291,64.980 216.381,65.199 213.370 C 65.415 210.414,65.723 207.560,65.885 207.030 C 66.047 206.499,66.296 204.204,66.440 201.930 C 66.961 193.667,68.812 190.701,71.667 193.556 L 72.528 194.417 72.451 200.517 C 72.378 206.298,72.493 207.606,73.243 209.511 C 73.519 210.210,73.850 208.243,74.136 204.211 C 74.284 202.130,74.535 200.184,74.694 199.886 C 74.853 199.589,75.118 198.377,75.283 197.193 C 75.552 195.259,76.145 193.535,77.337 191.225 C 77.903 190.127,77.849 189.938,76.617 188.697 C 75.108 187.178,75.160 185.968,76.775 185.056 C 79.491 183.523,83.948 185.241,84.924 188.198 C 85.090 188.700,85.320 189.111,85.435 189.111 C 85.551 189.111,85.799 189.452,85.986 189.869 C 86.568 191.166,88.270 193.495,88.974 193.956 C 89.648 194.397,90.424 194.025,91.310 192.833 C 91.678 192.337,91.525 186.289,91.114 185.136 C 90.902 184.542,90.524 182.929,90.274 181.553 C 90.024 180.176,89.599 178.615,89.329 178.084 C 89.059 177.553,88.762 176.528,88.669 175.805 C 88.576 175.082,88.289 174.090,88.032 173.600 C 87.774 173.110,87.407 171.964,87.216 171.054 C 87.025 170.145,86.620 168.656,86.316 167.746 C 84.182 161.366,84.603 157.999,87.539 157.969 C 88.920 157.954,91.678 161.397,92.339 163.959 C 92.736 165.502,93.695 168.396,94.324 169.952 C 94.631 170.710,95.043 171.888,95.240 172.571 C 95.438 173.253,95.798 174.272,96.042 174.836 C 96.286 175.400,96.485 176.188,96.485 176.587 C 96.485 177.564,98.291 179.420,98.773 178.939 C 99.016 178.696,99.141 175.372,99.244 166.424 C 99.409 152.027,99.514 151.487,102.241 150.969 C 105.258 150.396,106.474 155.000,106.963 168.848 C 107.216 176.017,107.340 177.521,107.733 178.192 C 108.931 180.236,110.216 179.678,110.939 176.799 C 111.198 175.768,111.536 174.772,111.690 174.586 C 111.844 174.401,112.196 173.406,112.470 172.376 C 112.745 171.346,113.163 170.007,113.399 169.400 C 113.635 168.794,113.834 167.924,113.840 167.467 C 113.847 167.010,114.093 166.187,114.386 165.639 C 114.680 165.092,115.123 163.946,115.371 163.094 C 116.763 158.306,119.362 155.787,121.294 157.352 C 122.734 158.518,122.553 163.762,120.941 167.609 C 120.719 168.139,120.448 169.186,120.340 169.936 C 120.232 170.685,119.915 171.877,119.636 172.585 C 119.357 173.293,118.985 174.665,118.809 175.634 C 118.633 176.602,118.242 177.939,117.939 178.603 C 116.379 182.029,119.448 182.614,121.309 179.246 C 121.620 178.683,122.299 177.540,122.817 176.706 C 123.335 175.872,123.911 174.879,124.096 174.500 C 124.282 174.121,124.638 173.563,124.887 173.260 C 125.137 172.957,125.510 172.274,125.716 171.744 C 126.998 168.436,130.311 166.631,131.633 168.519 C 132.231 169.373,132.179 172.211,131.546 173.260 C 131.271 173.715,130.882 174.682,130.680 175.409 C 130.479 176.137,130.102 177.005,129.842 177.339 C 129.583 177.673,129.213 178.442,129.020 179.049 C 128.827 179.655,128.520 180.338,128.337 180.565 C 128.155 180.793,127.788 181.567,127.523 182.285 C 127.258 183.004,126.924 183.664,126.781 183.753 C 126.374 184.004,124.874 187.458,124.572 188.835 C 124.423 189.518,124.186 190.572,124.046 191.178 C 123.906 191.785,123.602 193.573,123.371 195.151 C 122.905 198.331,121.560 203.707,120.730 205.702 C 120.435 206.413,120.193 207.244,120.193 207.549 C 120.193 207.854,119.883 208.686,119.504 209.399 C 119.125 210.112,118.815 211.022,118.815 211.422 C 118.815 211.822,118.553 212.889,118.232 213.793 C 116.840 217.724,117.847 225.529,119.883 226.601 C 121.400 227.399,125.258 231.298,126.101 232.886 C 127.333 235.207,128.706 235.509,129.194 233.566 C 129.464 232.487,128.788 227.023,128.199 225.528 C 127.889 224.743,127.633 223.764,127.630 223.353 C 127.627 222.942,127.362 222.047,127.041 221.365 C 126.345 219.883,125.312 216.278,124.709 213.232 C 124.469 212.019,124.079 210.364,123.841 209.554 C 123.134 207.141,124.170 203.992,125.669 204.002 C 127.924 204.016,129.279 206.166,130.446 211.578 C 130.609 212.336,130.974 213.389,131.257 213.917 C 131.540 214.446,131.771 215.103,131.771 215.378 C 131.771 216.064,132.494 217.406,132.960 217.585 C 133.182 217.670,133.412 218.321,133.509 219.136 C 133.747 221.150,134.105 221.713,134.540 220.760 C 134.967 219.822,134.672 217.755,134.000 216.981 C 133.576 216.492,133.474 215.723,133.346 212.060 C 133.229 208.717,133.062 207.317,132.620 205.971 C 131.713 203.208,131.911 201.698,133.391 200.069 C 134.761 198.561,136.961 199.297,137.695 201.508 C 138.247 203.169,138.440 203.322,139.083 202.611 C 141.659 199.765,144.661 203.158,145.310 209.649 C 145.461 211.165,145.753 212.715,145.958 213.094 C 146.434 213.973,146.596 214.959,146.921 218.952 C 147.143 221.675,147.303 222.391,147.919 223.444 C 149.381 225.938,149.717 224.673,149.644 216.954 C 149.582 210.415,149.673 209.969,151.118 209.680 C 152.589 209.386,153.663 210.707,154.341 213.646 C 154.638 214.935,155.029 216.485,155.208 217.092 C 156.029 219.859,155.792 250.155,154.928 253.067 C 154.770 253.598,154.455 255.272,154.227 256.788 C 153.999 258.305,153.672 259.978,153.500 260.506 C 153.132 261.640,153.166 263.236,153.689 269.229 C 153.902 271.674,154.004 274.124,153.915 274.673 L 153.753 275.672 157.615 275.672 L 161.478 275.672 161.672 272.708 C 161.778 271.079,162.093 268.691,162.372 267.402 C 162.650 266.113,162.964 264.190,163.070 263.129 C 163.176 262.068,163.418 261.013,163.608 260.786 C 163.798 260.558,164.094 259.256,164.267 257.891 C 164.440 256.527,164.819 254.651,165.111 253.723 C 165.441 252.673,165.711 250.744,165.824 248.623 C 165.925 246.746,166.273 243.970,166.598 242.453 C 167.395 238.732,167.491 224.510,166.737 221.778 C 166.486 220.868,166.199 219.504,166.099 218.746 C 165.802 216.488,165.358 214.354,165.125 214.059 C 165.005 213.908,164.380 212.797,163.735 211.591 C 163.032 210.277,162.022 208.897,161.211 208.145 C 159.899 206.929,159.868 206.865,160.178 205.994 C 160.712 204.488,162.355 204.559,165.721 206.236 C 166.746 206.747,168.948 210.231,169.411 212.072 C 169.641 212.989,170.856 213.718,171.527 213.342 C 172.521 212.787,176.082 205.800,176.315 203.949 C 176.420 203.113,176.725 202.233,177.024 201.904 C 177.312 201.587,177.661 200.633,177.799 199.784 C 177.937 198.935,178.232 197.954,178.454 197.604 C 179.964 195.229,179.909 191.987,178.325 189.970 C 178.041 189.608,177.808 189.162,177.808 188.979 C 177.808 188.515,176.884 187.726,175.383 186.909 C 174.684 186.528,173.885 185.827,173.609 185.350 L 173.106 184.484 174.086 183.558 C 177.119 180.692,183.818 183.279,185.251 187.870 C 185.440 188.477,185.816 189.221,186.086 189.524 C 186.356 189.828,186.765 190.533,186.995 191.091 C 188.303 194.266,191.935 192.239,193.948 187.210 C 194.340 186.231,194.839 185.177,195.056 184.866 C 195.273 184.556,195.451 184.124,195.451 183.907 C 195.451 183.690,195.757 182.866,196.132 182.075 C 196.506 181.284,196.894 180.094,196.995 179.430 C 197.096 178.765,197.409 177.703,197.691 177.069 C 197.974 176.435,198.330 175.035,198.483 173.958 C 198.635 172.881,198.935 171.582,199.148 171.071 C 199.362 170.560,199.687 169.418,199.870 168.534 C 200.180 167.041,200.412 166.610,201.946 164.671 C 203.241 163.035,206.109 163.718,207.301 165.947 C 207.774 166.830,208.160 166.514,208.657 164.839 C 209.110 163.312,209.882 162.682,212.152 161.987 C 214.107 161.389,215.502 164.934,214.361 167.600 C 214.132 168.135,213.761 169.775,213.537 171.243 C 213.314 172.712,212.951 174.200,212.731 174.551 C 212.512 174.902,212.115 176.120,211.849 177.257 C 211.583 178.394,211.250 179.471,211.109 179.650 C 210.969 179.829,210.899 180.449,210.956 181.028 L 211.058 182.081 211.410 181.197 C 211.604 180.710,211.988 180.240,212.264 180.153 C 212.540 180.065,212.977 179.533,213.236 178.970 C 213.495 178.407,213.860 177.822,214.047 177.671 C 214.458 177.337,216.398 173.359,216.413 172.817 C 216.433 172.108,218.224 169.404,218.902 169.060 C 222.473 167.246,224.321 171.182,221.708 175.035 C 221.184 175.807,220.186 178.265,219.519 180.427 C 219.285 181.185,218.923 182.001,218.714 182.239 C 218.506 182.478,218.164 183.222,217.955 183.893 C 217.746 184.564,217.001 185.976,216.300 187.030 C 213.763 190.842,216.266 193.138,220.033 190.456 C 220.440 190.166,221.323 189.826,221.994 189.701 C 223.557 189.409,226.035 188.016,228.037 186.305 C 230.740 183.993,232.908 183.842,235.286 185.799 C 235.589 186.048,236.161 186.453,236.557 186.698 C 236.981 186.960,237.348 187.498,237.449 188.002 C 237.543 188.474,237.933 189.270,238.314 189.770 C 238.695 190.270,239.008 190.762,239.008 190.863 C 239.008 191.358,240.865 193.766,241.550 194.159 C 243.607 195.340,244.970 190.951,244.017 186.210 C 243.129 181.792,241.374 174.982,240.680 173.260 C 240.496 172.805,240.231 171.825,240.090 171.081 C 239.948 170.338,239.640 169.345,239.404 168.876 C 237.936 165.953,237.335 161.065,238.249 159.476 C 239.904 156.600,243.514 159.080,244.583 163.826 C 244.761 164.617,245.118 165.575,245.377 165.955 C 245.636 166.334,245.932 167.134,246.034 167.734 C 246.137 168.333,246.448 169.269,246.726 169.814 C 247.004 170.359,247.315 171.295,247.417 171.894 C 247.519 172.494,247.893 173.604,248.248 174.363 C 248.603 175.121,248.972 176.220,249.069 176.805 C 249.382 178.707,251.467 180.028,251.835 178.559 C 251.922 178.214,252.017 172.539,252.047 165.947 L 252.102 153.963 252.793 152.728 C 254.029 150.520,255.895 150.519,257.256 152.725 C 258.392 154.566,258.846 157.674,259.147 165.679 C 259.564 176.744,259.710 177.962,260.743 178.995 L 261.600 179.853 262.414 179.074 C 263.236 178.286,263.503 177.738,264.041 175.741 C 264.526 173.935,265.733 170.578,266.020 170.231 C 266.167 170.054,266.403 169.100,266.543 168.111 C 266.683 167.122,267.047 165.823,267.352 165.225 C 267.657 164.627,267.997 163.647,268.106 163.047 C 268.709 159.736,271.344 156.801,273.376 157.178 C 275.009 157.480,275.219 163.137,273.721 166.452 C 273.399 167.164,273.032 168.631,272.905 169.713 C 272.778 170.795,272.359 172.427,271.975 173.340 C 271.590 174.253,271.192 175.539,271.089 176.197 C 270.986 176.856,270.673 177.827,270.392 178.356 C 268.948 181.079,270.805 183.225,272.723 181.048 C 273.157 180.555,273.751 179.655,274.044 179.049 C 274.336 178.442,274.950 177.450,275.407 176.844 C 275.864 176.237,276.563 175.121,276.960 174.363 C 277.357 173.604,277.943 172.488,278.262 171.881 C 280.789 167.077,284.493 166.628,284.493 171.125 C 284.493 171.704,284.242 172.670,283.935 173.270 C 283.628 173.871,283.251 174.830,283.096 175.402 C 282.942 175.974,282.510 176.890,282.138 177.439 C 281.766 177.988,281.461 178.546,281.461 178.680 C 281.461 178.929,279.884 182.352,278.307 185.527 C 276.742 188.677,275.676 193.300,275.670 196.960 C 275.669 197.571,275.488 198.417,275.266 198.841 C 275.045 199.265,274.666 200.444,274.425 201.460 C 274.183 202.477,273.812 203.742,273.601 204.273 C 273.389 204.804,273.028 206.011,272.797 206.956 C 272.566 207.902,272.082 209.266,271.720 209.989 C 271.359 210.711,270.986 211.799,270.892 212.405 C 270.798 213.012,270.600 214.066,270.452 214.748 C 270.112 216.315,270.116 221.847,270.459 223.846 C 270.602 224.680,270.948 227.905,271.229 231.013 C 271.509 234.121,271.881 237.037,272.056 237.491 C 272.231 237.946,272.617 241.048,272.913 244.383 C 273.209 247.719,273.639 251.378,273.867 252.516 C 274.095 253.653,274.404 256.010,274.553 257.753 C 274.703 259.497,275.015 262.226,275.248 263.818 C 276.070 269.444,276.387 273.691,276.076 274.914 L 275.883 275.672 281.705 275.672 C 288.091 275.672,287.862 275.743,287.150 273.983 C 286.943 273.471,286.562 271.626,286.301 269.883 C 286.041 268.139,285.546 265.968,285.201 265.059 C 284.856 264.149,284.443 262.784,284.283 262.026 C 283.976 260.576,282.585 255.467,281.911 253.319 C 281.693 252.623,281.424 251.204,281.312 250.165 C 281.198 249.094,280.828 247.713,280.458 246.978 C 280.100 246.265,279.807 245.593,279.807 245.484 C 279.807 245.376,279.276 244.525,278.626 243.595 C 273.959 236.903,272.544 227.813,274.843 219.297 C 275.149 218.164,275.490 215.461,275.670 212.746 C 275.838 210.205,276.155 207.186,276.375 206.037 C 276.595 204.888,276.777 202.936,276.780 201.699 C 276.797 194.652,278.695 191.260,281.740 192.834 C 282.967 193.469,283.178 194.717,282.963 200.088 C 282.780 204.649,283.107 209.613,283.623 210.129 C 283.935 210.441,284.141 208.984,284.374 204.824 C 284.471 203.081,284.772 200.786,285.042 199.724 C 285.313 198.663,285.615 197.112,285.714 196.278 C 285.813 195.445,286.188 194.142,286.549 193.384 C 286.909 192.626,287.391 191.548,287.620 190.988 C 288.387 189.111,291.058 189.231,292.088 191.189 C 292.560 192.085,292.878 192.325,294.018 192.645 C 296.033 193.210,296.149 193.296,296.883 194.759 C 297.668 196.325,297.741 198.460,297.191 203.722 C 296.467 210.633,296.568 215.633,297.390 213.614 C 297.552 213.217,297.774 211.543,297.883 209.892 C 297.993 208.242,298.241 206.644,298.434 206.340 C 298.627 206.037,298.936 205.009,299.121 204.055 C 299.564 201.760,300.788 200.923,302.421 201.797 C 303.682 202.472,304.152 206.933,303.384 210.944 C 303.057 212.654,303.007 214.797,303.126 221.971 C 303.222 227.744,303.167 231.651,302.971 233.081 C 302.528 236.307,301.838 239.905,301.561 240.426 C 301.168 241.169,299.869 249.227,300.017 250.006 C 300.730 253.752,301.399 256.277,301.842 256.900 C 302.136 257.312,302.461 257.988,302.565 258.403 C 302.669 258.818,302.807 259.105,302.871 259.040 C 303.053 258.858,304.889 251.067,304.891 250.468 C 304.892 250.175,305.008 249.555,305.148 249.089 C 305.623 247.508,306.801 240.537,307.106 237.506 C 307.273 235.845,307.517 233.919,307.649 233.224 C 307.780 232.530,307.978 230.551,308.087 228.827 C 308.240 226.406,308.394 225.583,308.763 225.213 C 309.195 224.782,309.261 223.638,309.442 213.608 L 309.643 202.481 308.966 201.756 C 308.347 201.093,308.275 200.739,308.114 197.572 C 307.713 189.658,304.204 180.802,300.306 177.869 C 298.946 176.845,298.647 175.591,299.637 175.061 C 302.475 173.543,308.776 176.331,309.848 179.579 C 310.013 180.079,310.591 181.219,311.131 182.112 C 311.671 183.005,312.401 184.300,312.753 184.990 C 313.608 186.667,314.612 187.145,315.450 186.274 C 317.048 184.615,319.695 180.467,319.940 179.239 C 320.049 178.695,320.443 178.089,320.916 177.740 C 321.531 177.285,321.710 176.932,321.711 176.171 C 321.713 175.219,323.092 169.964,323.632 168.849 C 323.779 168.546,324.266 167.181,324.713 165.817 C 326.719 159.695,327.317 158.841,329.769 158.594 L 331.350 158.435 331.899 159.645 C 332.664 161.329,332.482 163.154,331.272 165.955 C 331.109 166.334,330.831 167.869,330.655 169.367 C 330.420 171.372,330.216 172.157,329.882 172.344 C 329.597 172.503,329.428 172.953,329.428 173.549 C 329.428 174.624,329.842 174.817,330.138 173.880 C 330.246 173.539,330.552 173.107,330.817 172.920 C 331.083 172.732,331.447 171.968,331.627 171.221 C 331.806 170.474,332.253 169.455,332.620 168.957 C 332.987 168.460,333.287 167.917,333.287 167.751 C 333.287 167.585,333.533 166.968,333.833 166.380 C 334.133 165.792,334.570 164.650,334.805 163.842 C 335.487 161.495,337.778 159.272,339.228 159.549 C 341.453 159.974,341.847 164.180,340.024 168.034 C 339.654 168.815,339.352 169.691,339.352 169.981 C 339.352 170.270,339.035 171.104,338.646 171.833 C 337.936 173.167,337.837 174.505,338.433 174.701 C 338.610 174.759,338.839 174.520,338.943 174.171 C 339.047 173.821,339.423 173.101,339.779 172.571 C 340.135 172.040,340.564 170.989,340.732 170.234 C 340.899 169.480,341.139 168.798,341.264 168.718 C 341.390 168.639,341.725 168.077,342.008 167.471 C 342.667 166.062,344.776 165.680,345.516 166.836 C 346.588 168.509,346.319 172.456,344.996 174.468 C 344.636 175.017,344.205 176.085,344.038 176.844 C 343.653 178.600,342.002 182.024,340.836 183.487 C 338.831 186.002,339.961 188.897,342.303 187.245 C 342.727 186.946,343.570 186.454,344.176 186.152 C 346.231 185.130,349.132 183.436,350.583 182.412 C 352.849 180.812,354.534 181.499,354.502 184.011 C 354.483 185.502,352.011 188.560,350.824 188.560 C 350.642 188.560,349.941 189.127,349.265 189.821 C 348.589 190.515,347.043 191.741,345.830 192.545 C 342.920 194.474,341.939 195.782,340.503 199.648 C 339.674 201.880,336.537 206.691,334.187 209.334 C 333.089 210.568,332.066 211.950,331.912 212.405 C 331.758 212.860,331.280 213.432,330.851 213.676 C 329.513 214.436,329.292 218.087,329.572 234.834 C 329.831 250.359,329.766 259.858,329.396 260.561 C 329.262 260.817,329.030 262.198,328.882 263.630 C 328.733 265.063,328.472 266.590,328.300 267.025 C 328.129 267.460,327.891 269.304,327.771 271.123 C 327.651 272.943,327.464 274.711,327.356 275.052 L 327.158 275.672 342.939 275.672 L 358.719 275.672 358.519 274.225 C 358.409 273.429,358.223 270.110,358.106 266.850 C 357.899 261.111,357.564 258.265,356.962 257.141 C 356.566 256.400,351.356 254.121,348.312 253.356 C 347.510 253.155,346.624 252.513,345.070 251.006 C 343.894 249.865,342.858 248.932,342.769 248.932 C 342.680 248.932,342.271 248.692,341.859 248.399 C 341.447 248.106,340.789 247.785,340.395 247.686 C 340.002 247.588,339.409 247.218,339.078 246.865 C 338.746 246.513,337.428 245.817,336.149 245.319 C 333.728 244.377,333.399 244.021,333.609 242.561 C 333.904 240.512,340.054 240.239,342.892 242.148 C 345.904 244.175,347.480 244.588,348.414 243.594 C 351.151 240.681,348.263 232.250,342.644 226.747 C 341.718 225.840,340.802 224.717,340.607 224.250 C 340.411 223.783,339.552 222.327,338.696 221.014 C 336.852 218.185,336.536 217.438,336.769 216.452 C 337.017 215.400,338.188 213.921,338.773 213.921 C 339.272 213.921,342.385 216.963,342.385 217.451 C 342.385 217.596,343.014 218.380,343.783 219.195 C 344.552 220.009,345.888 221.420,346.751 222.329 C 348.260 223.920,348.911 224.755,349.850 226.299 C 350.353 227.126,351.137 227.380,351.363 226.789 C 351.615 226.132,350.985 224.261,350.242 223.458 C 349.862 223.049,349.552 222.467,349.552 222.165 C 349.552 221.862,349.242 221.032,348.863 220.320 C 348.484 219.608,348.174 218.708,348.174 218.319 C 348.174 217.930,347.864 217.192,347.484 216.678 C 347.105 216.164,346.795 215.606,346.795 215.438 C 346.795 215.270,346.495 214.519,346.128 213.769 C 344.110 209.647,344.865 207.381,348.057 207.980 C 348.946 208.147,351.722 212.970,352.693 216.033 C 352.797 216.361,353.187 216.829,353.560 217.073 C 353.953 217.331,354.238 217.783,354.238 218.148 C 354.238 218.903,354.932 219.936,355.235 219.633 C 355.551 219.317,355.448 217.663,355.024 216.219 C 354.656 214.970,354.066 214.194,352.836 213.345 C 352.206 212.910,352.205 212.895,352.668 211.681 C 352.925 211.008,353.136 210.270,353.136 210.042 C 353.136 209.814,353.507 209.198,353.960 208.673 L 354.785 207.719 355.270 208.306 C 355.536 208.630,355.879 209.094,356.030 209.339 C 356.199 209.612,357.158 209.954,358.511 210.224 C 359.724 210.467,361.678 211.095,362.854 211.620 C 365.180 212.659,365.331 212.647,365.989 211.373 C 366.356 210.664,366.404 209.959,366.261 207.325 C 366.167 205.570,366.092 203.758,366.096 203.297 C 366.109 201.525,365.075 197.491,363.839 194.487 C 363.526 193.728,363.147 192.612,362.995 192.006 C 362.842 191.399,362.499 190.345,362.231 189.662 C 359.632 183.044,359.929 177.517,362.884 177.543 C 365.133 177.562,365.531 178.181,367.479 184.700 C 367.774 185.686,368.133 186.740,368.277 187.043 C 368.421 187.347,368.729 188.283,368.962 189.125 C 370.775 195.698,373.010 195.531,371.322 188.948 C 371.015 187.749,370.639 185.155,370.488 183.184 C 370.337 181.213,370.012 178.446,369.768 177.035 C 369.246 174.032,369.507 172.718,370.850 171.588 C 373.657 169.226,375.740 171.425,376.296 177.336 C 376.630 180.878,376.812 181.724,377.213 181.592 C 377.981 181.339,378.195 180.167,378.032 177.120 L 377.868 174.071 378.836 173.045 C 381.526 170.193,383.562 172.598,384.294 179.492 C 384.448 180.949,384.756 182.996,384.977 184.041 C 385.199 185.086,385.382 186.546,385.385 187.286 C 385.389 188.440,386.059 190.991,387.120 193.891 C 387.681 195.425,387.984 193.790,388.161 188.280 C 388.344 182.554,388.485 181.931,389.739 181.290 C 392.026 180.122,393.615 183.326,394.186 190.255 C 394.357 192.325,394.684 194.620,394.912 195.355 C 395.141 196.090,395.454 197.741,395.606 199.024 C 395.759 200.307,396.057 201.547,396.269 201.781 C 396.514 202.052,396.876 204.111,397.264 207.444 C 397.887 212.788,398.592 215.022,399.655 215.024 C 399.930 215.024,400.000 193.338,400.000 107.512 L 400.000 0.000 200.000 0.000 L 0.000 0.000 0.000 137.836 M206.230 169.615 C 206.008 170.991,205.730 171.790,205.364 172.103 C 204.777 172.606,204.550 176.228,205.085 176.559 C 205.314 176.700,205.921 175.112,205.925 174.358 C 205.926 174.205,206.197 173.584,206.527 172.980 C 206.983 172.146,207.133 171.390,207.148 169.840 C 207.174 167.089,206.658 166.962,206.230 169.615 M229.062 192.077 C 228.391 192.496,227.643 192.961,227.398 193.111 C 227.153 193.261,226.222 193.868,225.330 194.459 C 224.438 195.050,223.320 195.641,222.846 195.772 C 220.740 196.354,215.731 202.043,214.881 204.819 C 214.765 205.195,214.424 205.836,214.123 206.244 C 213.495 207.094,213.621 208.109,214.469 209.018 C 214.757 209.328,215.445 210.495,215.997 211.612 C 216.548 212.728,217.104 213.706,217.231 213.785 C 217.359 213.863,217.545 214.301,217.645 214.758 C 217.745 215.215,218.104 215.927,218.441 216.340 C 218.779 216.753,219.209 217.627,219.399 218.280 C 219.762 219.537,220.335 219.744,220.912 218.827 C 221.303 218.207,220.768 215.604,220.034 214.554 C 217.951 211.575,218.667 207.074,220.981 208.591 C 221.715 209.072,223.362 211.452,223.702 212.524 C 223.811 212.869,224.199 213.590,224.562 214.126 C 224.926 214.662,225.224 215.274,225.224 215.485 C 225.224 215.697,225.517 216.455,225.876 217.170 C 226.234 217.885,226.618 218.966,226.728 219.572 C 226.838 220.179,227.212 221.357,227.559 222.191 C 227.906 223.025,228.277 224.438,228.385 225.330 C 228.661 227.613,230.266 229.133,230.967 227.774 C 231.448 226.840,231.721 222.323,231.535 218.381 C 231.417 215.887,231.718 215.300,233.115 215.300 C 234.749 215.300,235.414 217.706,235.594 224.259 C 235.706 228.333,235.822 229.419,236.246 230.324 C 236.529 230.930,236.905 232.481,237.081 233.770 C 237.257 235.059,237.565 236.498,237.767 236.968 C 238.431 238.520,238.817 244.080,238.655 249.758 C 238.488 255.639,238.775 258.954,239.592 260.568 C 239.877 261.130,240.110 262.001,240.110 262.502 C 240.110 263.003,240.359 263.877,240.663 264.444 C 240.979 265.033,241.398 266.746,241.641 268.437 C 241.875 270.066,242.247 271.948,242.467 272.620 C 242.687 273.291,242.867 274.253,242.867 274.756 L 242.867 275.672 245.968 275.671 L 249.070 275.670 249.129 266.918 C 249.161 262.105,249.337 256.120,249.518 253.618 C 250.073 245.981,250.145 222.616,249.622 219.744 C 248.708 214.719,248.616 214.439,247.708 213.909 C 246.626 213.278,245.024 212.079,243.858 211.027 C 242.192 209.524,237.078 203.183,237.078 202.620 C 237.078 202.316,236.822 201.812,236.509 201.499 C 236.197 201.186,235.711 200.394,235.430 199.738 C 235.148 199.081,234.787 198.464,234.627 198.365 C 234.467 198.266,234.207 197.706,234.050 197.121 C 233.433 194.829,231.874 191.867,231.138 191.587 C 230.245 191.248,230.479 191.193,229.062 192.077 M86.467 206.478 C 86.145 207.461,86.051 212.707,86.331 214.013 L 86.633 215.420 87.141 214.126 C 87.869 212.273,87.853 207.598,87.116 206.695 C 86.705 206.191,86.575 206.148,86.467 206.478 M209.939 213.468 C 209.422 213.985,209.250 214.540,209.095 216.191 C 208.840 218.915,208.969 219.231,211.273 221.512 C 212.351 222.579,213.666 224.111,214.197 224.916 C 215.297 226.586,216.955 228.288,217.284 228.085 C 217.747 227.798,217.512 225.904,216.954 225.426 C 216.651 225.166,216.402 224.774,216.402 224.554 C 216.402 224.335,215.782 222.938,215.024 221.450 C 214.266 219.963,213.571 218.312,213.480 217.781 C 213.239 216.384,211.444 212.819,210.982 212.819 C 210.765 212.819,210.296 213.111,209.939 213.468 M93.059 213.414 C 92.460 215.258,92.296 219.064,92.626 223.432 C 93.058 229.144,92.529 235.372,91.208 240.110 C 90.057 244.242,89.318 247.515,89.318 248.481 C 89.318 249.890,90.593 255.652,91.138 256.706 C 91.358 257.131,91.660 258.129,91.809 258.925 C 91.959 259.721,92.310 260.684,92.589 261.065 C 92.869 261.446,93.188 262.483,93.299 263.370 C 93.409 264.256,93.800 265.982,94.166 267.205 C 94.532 268.428,94.831 269.947,94.831 270.579 C 94.831 271.848,95.303 273.467,95.673 273.467 C 96.062 273.467,96.174 272.012,96.348 264.738 C 96.439 260.922,96.633 255.774,96.779 253.297 C 97.841 235.259,97.322 218.336,95.610 215.246 C 94.894 213.953,93.264 212.782,93.059 213.414 M189.047 222.674 C 188.812 222.939,188.536 223.558,188.431 224.049 C 188.327 224.540,187.972 225.160,187.643 225.427 C 187.313 225.695,186.838 226.347,186.587 226.878 C 186.336 227.409,185.493 228.587,184.714 229.497 C 181.365 233.408,181.243 234.184,181.558 249.621 C 181.694 256.292,181.725 262.371,181.626 263.129 C 181.528 263.887,181.255 265.810,181.020 267.402 C 180.785 268.994,180.507 271.506,180.403 272.984 L 180.214 275.672 186.766 275.672 L 193.317 275.672 193.167 266.368 C 192.903 249.949,192.437 238.206,191.977 236.389 C 191.747 235.479,191.440 232.812,191.295 230.462 C 190.847 223.211,190.286 221.269,189.047 222.674 M363.340 225.844 C 363.346 226.687,363.622 227.038,364.441 227.238 C 365.969 227.611,366.162 226.386,364.694 225.627 C 363.623 225.074,363.335 225.120,363.340 225.844 M371.418 231.488 C 371.747 234.645,372.129 236.580,372.548 237.220 C 373.249 238.290,373.554 242.514,373.512 250.565 C 373.471 258.273,373.597 260.042,374.237 260.786 C 374.432 261.013,374.731 261.969,374.901 262.909 C 375.070 263.850,375.450 265.163,375.743 265.827 C 376.048 266.515,376.381 268.159,376.517 269.643 C 376.669 271.295,376.931 272.517,377.231 272.974 C 377.573 273.496,377.653 273.971,377.519 274.684 L 377.334 275.672 381.943 275.672 L 386.553 275.672 386.363 272.295 C 386.005 265.960,385.070 259.829,383.725 254.997 C 383.239 253.253,382.735 251.290,382.604 250.635 C 382.473 249.980,382.116 249.126,381.810 248.737 C 381.505 248.348,381.254 247.781,381.254 247.477 C 381.254 247.173,380.839 245.918,380.332 244.689 C 379.002 241.467,378.397 239.788,377.407 236.566 C 376.862 234.795,376.301 233.511,375.928 233.184 C 373.493 231.047,372.717 230.451,372.033 230.191 L 371.252 229.894 371.418 231.488 M213.711 235.469 C 213.153 236.027,213.412 241.071,214.031 241.690 C 214.978 242.637,215.294 236.827,214.365 235.556 C 214.116 235.216,213.982 235.198,213.711 235.469 M120.036 238.571 C 119.939 238.959,119.991 240.301,120.152 241.554 C 120.313 242.807,120.523 244.874,120.617 246.148 C 120.712 247.421,120.896 248.743,121.026 249.084 C 121.156 249.426,121.465 252.154,121.714 255.146 C 121.962 258.138,122.267 260.854,122.391 261.181 C 122.516 261.508,122.766 263.445,122.948 265.485 C 123.130 267.525,123.398 270.062,123.542 271.123 C 123.895 273.715,123.904 274.033,123.655 274.914 L 123.441 275.672 129.191 275.672 L 134.941 275.672 134.915 265.403 C 134.900 259.380,134.777 254.861,134.618 254.473 C 134.310 253.720,132.120 251.329,126.938 246.087 C 124.920 244.045,123.175 242.031,122.955 241.489 C 121.938 238.980,120.336 237.378,120.036 238.571 M219.080 255.341 C 218.581 255.715,218.773 256.877,220.002 260.924 C 220.279 261.833,220.652 263.632,220.831 264.921 C 221.010 266.210,221.325 267.677,221.531 268.181 C 222.028 269.398,222.545 273.647,222.334 274.776 C 222.174 275.634,222.203 275.672,223.045 275.672 L 223.923 275.672 223.677 269.125 C 223.542 265.524,223.458 261.771,223.490 260.786 C 223.569 258.344,223.205 257.114,222.263 256.636 C 221.845 256.424,221.152 255.969,220.723 255.624 C 219.821 254.898,219.700 254.877,219.080 255.341 " stroke="none" fill="#fbfbfb" fill-rule="evenodd"></path><path id="path3" d="M101.999 150.994 C 99.560 151.443,99.406 152.305,99.244 166.424 C 99.141 175.372,99.016 178.696,98.773 178.939 C 98.291 179.420,96.485 177.564,96.485 176.587 C 96.485 176.188,96.286 175.400,96.042 174.836 C 95.798 174.272,95.438 173.253,95.240 172.571 C 95.043 171.888,94.631 170.710,94.324 169.952 C 93.695 168.396,92.736 165.502,92.339 163.959 C 91.678 161.397,88.920 157.954,87.539 157.969 C 84.603 157.999,84.182 161.366,86.316 167.746 C 86.620 168.656,87.025 170.145,87.216 171.054 C 87.407 171.964,87.774 173.110,88.032 173.600 C 88.289 174.090,88.576 175.082,88.669 175.805 C 88.762 176.528,89.059 177.553,89.329 178.084 C 89.599 178.615,90.024 180.176,90.274 181.553 C 90.524 182.929,90.902 184.542,91.114 185.136 C 91.525 186.289,91.678 192.337,91.310 192.833 C 90.424 194.025,89.648 194.397,88.974 193.956 C 88.270 193.495,86.568 191.166,85.986 189.869 C 85.799 189.452,85.551 189.111,85.435 189.111 C 85.320 189.111,85.090 188.700,84.924 188.198 C 83.948 185.241,79.491 183.523,76.775 185.056 C 74.799 186.172,75.151 187.602,78.010 190.076 L 78.647 190.627 78.354 190.076 C 78.192 189.773,77.616 189.097,77.073 188.574 C 75.105 186.682,76.049 184.976,79.063 184.976 C 81.636 184.976,83.275 186.018,84.674 188.542 C 85.029 189.184,85.533 190.095,85.794 190.565 C 86.663 192.136,87.946 193.764,88.786 194.363 L 89.617 194.955 90.576 194.307 C 92.236 193.185,92.548 187.406,91.169 183.322 C 90.785 182.185,90.389 180.663,90.290 179.940 C 90.191 179.217,89.882 178.101,89.603 177.459 C 89.325 176.817,89.007 175.740,88.898 175.064 C 88.788 174.389,88.476 173.397,88.204 172.859 C 87.931 172.321,87.560 171.137,87.379 170.227 C 87.198 169.318,86.886 168.254,86.685 167.864 C 85.529 165.609,85.214 160.094,86.182 159.025 C 87.647 157.405,92.074 161.406,92.074 164.350 C 92.074 164.638,92.311 165.338,92.601 165.905 C 92.890 166.473,93.257 167.641,93.416 168.502 C 93.575 169.362,93.944 170.537,94.235 171.112 C 94.526 171.687,94.853 172.591,94.962 173.122 C 95.072 173.653,95.335 174.362,95.549 174.699 C 95.762 175.036,96.075 175.967,96.244 176.767 C 96.781 179.309,98.123 180.546,99.134 179.430 C 99.622 178.890,99.651 178.204,99.653 166.824 L 99.655 154.790 100.482 153.136 C 102.027 150.047,104.895 151.443,105.420 155.540 C 105.523 156.340,105.779 157.926,105.990 159.063 C 106.201 160.200,106.443 163.766,106.528 166.988 C 106.795 177.117,106.926 178.367,107.812 179.254 C 109.276 180.717,110.651 179.944,111.117 177.395 C 111.283 176.485,111.642 175.369,111.913 174.914 C 112.185 174.459,112.495 173.591,112.603 172.984 C 112.711 172.378,113.099 171.249,113.464 170.477 C 113.829 169.704,114.134 168.711,114.140 168.271 C 114.147 167.831,114.345 166.975,114.579 166.368 C 114.814 165.762,115.247 164.583,115.540 163.750 C 115.834 162.917,116.319 161.730,116.618 161.113 C 116.916 160.496,117.161 159.842,117.161 159.660 C 117.161 157.830,121.148 156.683,121.635 158.374 C 122.047 159.802,121.595 164.532,120.885 166.230 C 120.536 167.064,120.111 168.658,119.940 169.771 C 119.768 170.885,119.458 172.126,119.250 172.528 C 119.042 172.931,118.797 174.005,118.707 174.914 L 118.542 176.568 118.932 174.868 C 119.147 173.933,119.463 172.905,119.635 172.583 C 119.807 172.262,120.126 171.066,120.344 169.927 C 120.562 168.787,120.877 167.600,121.044 167.288 C 121.211 166.976,121.616 165.401,121.943 163.788 C 123.751 154.886,117.935 154.272,115.371 163.094 C 115.123 163.946,114.680 165.092,114.386 165.639 C 114.093 166.187,113.847 167.010,113.840 167.467 C 113.834 167.924,113.635 168.794,113.399 169.400 C 113.163 170.007,112.745 171.346,112.470 172.376 C 112.196 173.406,111.844 174.401,111.690 174.586 C 111.536 174.772,111.198 175.768,110.939 176.799 C 110.216 179.678,108.931 180.236,107.733 178.192 C 107.340 177.521,107.216 176.017,106.963 168.848 C 106.666 160.424,106.229 156.258,105.395 153.886 C 104.984 152.721,103.402 150.757,102.931 150.830 C 102.797 150.851,102.378 150.925,101.999 150.994 M328.666 158.706 C 327.386 158.952,325.873 161.766,324.437 166.570 C 324.108 167.672,323.747 168.697,323.637 168.849 C 323.249 169.380,321.709 175.250,321.709 176.197 C 321.709 176.931,321.525 177.290,320.916 177.740 C 320.443 178.089,320.049 178.695,319.940 179.239 C 319.695 180.467,317.048 184.615,315.450 186.274 C 314.612 187.145,313.608 186.667,312.753 184.990 C 312.401 184.300,311.671 183.005,311.131 182.112 C 310.591 181.219,310.013 180.079,309.848 179.579 C 308.776 176.331,302.475 173.543,299.637 175.061 C 298.647 175.591,298.946 176.845,300.306 177.869 C 304.204 180.802,307.713 189.658,308.114 197.572 C 308.275 200.739,308.347 201.093,308.966 201.756 L 309.643 202.481 309.442 213.608 C 309.261 223.638,309.195 224.782,308.763 225.213 C 308.394 225.583,308.240 226.406,308.087 228.827 C 307.978 230.551,307.780 232.530,307.649 233.224 C 307.517 233.919,307.273 235.845,307.106 237.506 C 306.801 240.537,305.623 247.508,305.148 249.089 C 305.008 249.555,304.892 250.175,304.891 250.468 C 304.890 250.760,304.437 252.798,303.885 254.997 C 303.332 257.195,302.837 259.800,302.783 260.786 C 302.679 262.712,302.003 269.302,301.573 272.582 C 301.428 273.687,301.309 274.835,301.309 275.132 C 301.309 275.661,301.583 275.672,314.222 275.672 L 327.135 275.672 327.455 274.606 C 327.630 274.020,327.774 272.557,327.774 271.356 C 327.774 270.155,327.969 268.432,328.207 267.529 C 328.445 266.625,328.755 264.792,328.895 263.456 C 329.036 262.120,329.261 260.818,329.396 260.562 C 329.766 259.858,329.831 250.363,329.572 234.834 C 329.292 218.087,329.513 214.436,330.851 213.676 C 331.280 213.432,331.758 212.860,331.912 212.405 C 332.066 211.950,333.089 210.568,334.187 209.334 C 336.537 206.691,339.674 201.880,340.503 199.648 C 341.939 195.782,342.920 194.474,345.830 192.545 C 347.043 191.741,348.589 190.515,349.265 189.821 C 349.941 189.127,350.642 188.560,350.824 188.560 C 352.011 188.560,354.483 185.502,354.502 184.011 C 354.534 181.499,352.849 180.812,350.583 182.412 C 349.132 183.436,346.231 185.130,344.176 186.152 C 343.570 186.454,342.727 186.946,342.303 187.245 C 339.941 188.910,338.834 186.006,340.860 183.460 C 342.006 182.018,343.656 178.584,344.038 176.844 C 344.205 176.085,344.636 175.017,344.996 174.468 C 346.319 172.456,346.588 168.509,345.516 166.836 C 344.776 165.680,342.667 166.062,342.008 167.471 C 341.725 168.077,341.390 168.639,341.264 168.718 C 341.139 168.798,340.899 169.480,340.732 170.234 C 340.564 170.989,340.135 172.040,339.779 172.571 C 339.423 173.101,339.047 173.821,338.943 174.171 C 338.839 174.520,338.610 174.759,338.433 174.701 C 337.837 174.505,337.936 173.167,338.646 171.833 C 339.035 171.104,339.352 170.270,339.352 169.981 C 339.352 169.691,339.654 168.815,340.024 168.034 C 341.847 164.180,341.453 159.974,339.228 159.549 C 337.778 159.272,335.487 161.495,334.805 163.842 C 334.570 164.650,334.133 165.792,333.833 166.380 C 333.533 166.968,333.287 167.585,333.287 167.751 C 333.287 167.917,332.987 168.460,332.620 168.957 C 332.253 169.455,331.806 170.474,331.627 171.221 C 331.447 171.968,331.083 172.732,330.817 172.920 C 330.552 173.107,330.246 173.539,330.138 173.880 C 329.842 174.817,329.428 174.624,329.428 173.549 C 329.428 172.953,329.597 172.503,329.882 172.344 C 330.216 172.157,330.420 171.372,330.655 169.367 C 330.831 167.869,331.109 166.334,331.272 165.955 C 333.489 160.824,332.464 157.976,328.666 158.706 M128.582 168.148 C 127.511 168.850,126.200 170.493,125.716 171.744 C 125.510 172.274,125.137 172.957,124.887 173.260 C 124.638 173.563,124.282 174.121,124.096 174.500 C 123.911 174.879,123.335 175.872,122.817 176.706 C 122.299 177.540,121.620 178.683,121.309 179.246 C 119.426 182.654,116.383 182.021,117.964 178.550 C 118.766 176.789,118.684 176.299,117.850 177.867 C 115.085 183.061,119.124 183.678,122.192 178.529 C 123.456 176.408,124.435 174.802,125.057 173.830 C 125.383 173.322,125.810 172.460,126.007 171.915 C 127.321 168.281,131.459 167.042,131.848 170.165 L 131.959 171.054 132.003 170.051 C 132.089 168.098,130.235 167.066,128.582 168.148 M371.302 171.271 C 369.742 172.320,369.262 173.703,369.655 176.017 C 369.835 177.078,370.156 179.931,370.369 182.357 C 370.581 184.783,371.009 187.749,371.318 188.948 C 371.947 191.383,372.052 193.792,371.552 194.293 C 371.166 194.679,369.672 191.697,368.962 189.125 C 368.729 188.283,368.421 187.347,368.277 187.043 C 368.133 186.740,367.774 185.686,367.479 184.700 C 365.531 178.181,365.133 177.562,362.884 177.543 C 359.929 177.517,359.632 183.044,362.231 189.662 C 362.499 190.345,362.842 191.399,362.995 192.006 C 363.147 192.612,363.526 193.728,363.839 194.487 C 365.075 197.491,366.109 201.525,366.096 203.297 C 366.092 203.758,366.167 205.570,366.261 207.325 C 366.404 209.959,366.356 210.664,365.989 211.373 C 365.331 212.647,365.179 212.659,362.854 211.619 C 359.738 210.224,356.565 209.630,355.384 210.220 C 354.877 210.473,354.205 210.596,353.835 210.503 C 353.259 210.358,353.123 210.491,352.691 211.622 L 352.201 212.906 352.836 213.345 C 353.185 213.586,353.780 214.094,354.156 214.473 C 354.533 214.852,355.261 215.286,355.774 215.438 C 357.988 216.093,361.971 220.521,363.080 223.564 C 363.532 224.805,363.852 225.257,364.454 225.506 C 364.885 225.685,365.433 226.129,365.672 226.492 C 365.910 226.856,366.292 227.154,366.521 227.154 C 367.163 227.154,369.709 228.513,370.719 229.395 C 371.217 229.830,371.803 230.186,372.020 230.186 C 372.362 230.186,373.823 231.304,375.928 233.177 C 376.298 233.506,376.867 234.808,377.407 236.566 C 378.397 239.788,379.002 241.467,380.332 244.689 C 380.839 245.918,381.254 247.173,381.254 247.477 C 381.254 247.781,381.505 248.348,381.810 248.737 C 382.116 249.126,382.473 249.980,382.604 250.635 C 382.735 251.290,383.239 253.253,383.725 254.997 C 385.070 259.829,386.005 265.960,386.363 272.295 L 386.553 275.672 393.276 275.672 L 400.000 275.672 400.000 245.348 C 400.000 221.273,399.929 215.024,399.655 215.024 C 398.592 215.022,397.887 212.788,397.264 207.444 C 396.876 204.111,396.514 202.052,396.269 201.781 C 396.057 201.547,395.759 200.307,395.606 199.024 C 395.454 197.741,395.141 196.090,394.912 195.355 C 394.684 194.620,394.357 192.325,394.186 190.255 C 393.615 183.326,392.026 180.122,389.739 181.290 C 388.485 181.931,388.344 182.554,388.161 188.280 C 387.984 193.790,387.681 195.425,387.120 193.891 C 386.059 190.991,385.389 188.440,385.385 187.286 C 385.382 186.546,385.199 185.086,384.977 184.041 C 384.756 182.996,384.448 180.949,384.294 179.492 C 383.562 172.598,381.526 170.193,378.836 173.045 L 377.868 174.071 378.032 177.120 C 378.195 180.167,377.981 181.339,377.213 181.592 C 376.812 181.724,376.630 180.878,376.298 177.355 C 375.768 171.724,373.939 169.497,371.302 171.271 M131.808 171.606 C 131.786 171.909,131.540 172.532,131.261 172.991 C 130.981 173.449,130.594 174.318,130.401 174.920 C 130.208 175.523,129.831 176.389,129.562 176.844 C 129.294 177.298,128.990 178.068,128.887 178.554 C 128.785 179.039,128.480 179.721,128.211 180.070 C 127.942 180.418,127.500 181.290,127.230 182.008 C 126.959 182.727,126.567 183.455,126.360 183.627 C 126.152 183.800,125.982 184.091,125.982 184.274 C 125.982 184.457,125.672 185.217,125.293 185.963 C 124.229 188.057,123.542 190.604,123.104 194.084 C 122.884 195.834,122.563 197.633,122.391 198.082 C 122.219 198.530,121.909 199.849,121.704 201.012 C 121.498 202.175,121.067 203.641,120.746 204.270 C 120.425 204.899,120.091 206.056,120.005 206.842 C 119.918 207.627,119.618 208.652,119.338 209.118 C 119.058 209.584,118.690 210.638,118.519 211.461 C 118.348 212.283,118.053 213.205,117.864 213.508 C 116.871 215.094,117.195 224.282,118.280 225.359 L 118.839 225.913 118.373 224.810 C 117.577 222.927,117.487 215.897,118.232 213.793 C 118.553 212.889,118.815 211.822,118.815 211.422 C 118.815 211.022,119.125 210.112,119.504 209.399 C 119.883 208.686,120.193 207.854,120.193 207.549 C 120.193 207.244,120.435 206.413,120.730 205.702 C 121.560 203.707,122.905 198.331,123.371 195.151 C 123.602 193.573,123.906 191.785,124.046 191.178 C 124.186 190.572,124.423 189.518,124.572 188.835 C 124.874 187.458,126.374 184.004,126.781 183.753 C 126.924 183.664,127.258 183.004,127.523 182.285 C 127.788 181.567,128.155 180.793,128.337 180.565 C 128.520 180.338,128.825 179.655,129.014 179.049 C 129.204 178.442,129.531 177.750,129.740 177.510 C 129.948 177.270,130.314 176.464,130.553 175.718 C 130.791 174.972,131.234 173.896,131.536 173.327 C 131.838 172.757,132.031 172.012,131.965 171.672 C 131.861 171.133,131.841 171.125,131.808 171.606 M179.324 195.496 C 179.062 196.305,178.669 197.254,178.449 197.604 C 178.230 197.954,177.937 198.935,177.799 199.784 C 177.661 200.633,177.312 201.587,177.024 201.904 C 176.725 202.233,176.420 203.113,176.315 203.949 C 176.082 205.800,172.521 212.787,171.527 213.342 C 170.856 213.718,169.641 212.989,169.411 212.072 C 168.948 210.231,166.746 206.747,165.721 206.236 C 162.355 204.559,160.712 204.488,160.178 205.994 C 159.868 206.865,159.899 206.929,161.211 208.145 C 162.022 208.897,163.032 210.277,163.735 211.591 C 164.380 212.797,165.005 213.908,165.125 214.059 C 165.358 214.354,165.802 216.488,166.099 218.746 C 166.199 219.504,166.486 220.868,166.737 221.778 C 167.491 224.510,167.395 238.732,166.598 242.453 C 166.273 243.970,165.925 246.746,165.824 248.623 C 165.711 250.744,165.441 252.673,165.111 253.723 C 164.819 254.651,164.440 256.527,164.267 257.891 C 164.094 259.256,163.798 260.558,163.608 260.786 C 163.418 261.013,163.176 262.068,163.070 263.129 C 162.964 264.190,162.650 266.113,162.372 267.402 C 162.093 268.691,161.778 271.079,161.672 272.708 L 161.478 275.672 170.832 275.672 L 180.186 275.672 180.513 271.881 C 180.693 269.797,181.023 267.037,181.247 265.748 C 181.801 262.551,181.798 262.766,181.547 248.932 C 181.272 233.776,181.334 233.406,184.861 229.319 C 185.561 228.507,186.339 227.409,186.589 226.878 C 186.839 226.347,187.313 225.695,187.643 225.427 C 187.972 225.160,188.327 224.540,188.430 224.049 C 188.534 223.558,188.870 222.883,189.177 222.548 C 190.545 221.058,189.067 214.956,186.401 211.091 C 185.902 210.368,185.267 209.128,184.989 208.334 C 184.529 207.024,182.859 203.245,182.171 201.962 C 181.568 200.836,181.054 199.067,180.686 196.849 C 180.196 193.897,179.926 193.629,179.324 195.496 M86.569 205.806 C 86.565 205.966,87.187 206.773,87.952 207.597 C 88.717 208.422,89.216 208.849,89.061 208.546 C 88.647 207.738,86.579 205.463,86.569 205.806 M92.885 212.512 C 93.038 212.798,93.607 213.294,94.150 213.614 C 97.269 215.454,98.134 228.661,96.769 253.618 C 95.973 268.190,95.986 275.672,96.807 275.672 C 97.139 275.672,97.089 275.200,96.668 274.349 C 96.280 273.564,96.377 269.221,97.039 257.753 C 98.588 230.924,97.841 215.382,94.913 213.509 C 94.489 213.237,93.920 212.785,93.649 212.503 C 92.992 211.822,92.518 211.827,92.885 212.512 M119.242 237.332 C 119.139 237.498,119.244 238.594,119.474 239.768 C 119.705 240.942,119.970 243.329,120.065 245.072 C 120.160 246.816,120.477 249.532,120.771 251.109 C 121.065 252.685,121.377 255.290,121.463 256.898 C 121.550 258.505,121.857 261.124,122.145 262.717 C 122.434 264.310,122.798 267.225,122.956 269.195 C 123.113 271.166,123.303 272.975,123.376 273.217 C 123.450 273.458,123.260 273.974,122.955 274.363 C 122.263 275.242,122.247 275.672,122.906 275.672 C 123.544 275.672,124.206 273.722,123.819 272.986 C 123.679 272.720,123.481 271.447,123.379 270.159 C 122.998 265.315,122.631 262.000,122.390 261.199 C 122.252 260.744,121.947 258.015,121.711 255.134 C 121.475 252.254,121.165 249.524,121.021 249.070 C 120.726 248.137,120.123 241.971,120.072 239.357 C 120.039 237.673,119.637 236.693,119.242 237.332 M223.364 261.475 C 223.367 262.081,223.423 262.297,223.489 261.954 C 223.555 261.611,223.553 261.115,223.484 260.851 C 223.415 260.588,223.361 260.868,223.364 261.475 M100.345 275.258 C 100.345 275.618,101.539 275.672,109.442 275.672 C 117.344 275.672,118.539 275.618,118.539 275.258 C 118.539 274.899,117.344 274.845,109.442 274.845 C 101.539 274.845,100.345 274.899,100.345 275.258 " stroke="none" fill="#f1c622" fill-rule="evenodd"></path><path id="path4" d="M211.027 162.405 C 209.268 163.114,209.183 163.205,208.664 164.929 C 208.206 166.452,207.483 166.807,206.892 165.799 C 206.021 164.315,205.310 163.749,204.317 163.750 C 203.307 163.751,201.516 164.616,201.516 165.102 C 201.516 165.245,201.224 165.712,200.867 166.140 C 200.510 166.569,200.023 167.726,199.784 168.711 C 199.545 169.697,199.165 171.185,198.939 172.019 C 198.713 172.853,198.386 174.328,198.212 175.297 C 198.038 176.265,197.732 177.320,197.533 177.640 C 197.334 177.960,197.090 178.765,196.991 179.430 C 196.892 180.094,196.506 181.284,196.132 182.075 C 195.757 182.866,195.451 183.690,195.451 183.907 C 195.451 184.124,195.273 184.556,195.056 184.866 C 194.839 185.177,194.340 186.231,193.948 187.210 C 193.169 189.158,191.288 191.646,189.960 192.487 C 188.848 193.191,187.593 192.554,186.768 190.864 C 186.465 190.244,186.082 189.564,185.917 189.355 C 185.752 189.145,185.342 188.291,185.006 187.457 C 183.744 184.326,180.903 182.457,177.323 182.402 C 173.802 182.349,172.175 184.882,174.702 186.484 C 175.188 186.791,175.982 187.292,176.466 187.595 C 176.951 187.898,177.477 188.394,177.636 188.697 C 177.794 189.001,178.127 189.559,178.374 189.938 C 178.622 190.317,178.980 191.101,179.171 191.680 C 179.362 192.259,179.686 192.798,179.890 192.876 C 180.400 193.072,180.763 194.394,180.939 196.692 C 181.101 198.802,182.009 201.395,183.293 203.410 C 183.740 204.112,184.381 205.555,184.717 206.616 C 185.518 209.144,186.220 210.521,187.356 211.786 C 187.866 212.355,188.284 213.016,188.284 213.256 C 188.284 213.495,188.590 214.580,188.964 215.667 C 189.338 216.754,189.765 218.697,189.913 219.986 C 190.061 221.275,190.369 223.136,190.598 224.121 C 190.826 225.107,191.135 227.898,191.285 230.324 C 191.435 232.750,191.746 235.479,191.977 236.389 C 192.437 238.206,192.903 249.941,193.167 266.368 L 193.317 275.672 207.742 275.672 L 222.167 275.672 222.334 274.776 C 222.545 273.644,222.027 269.394,221.529 268.181 C 221.323 267.677,220.999 266.147,220.811 264.783 C 220.623 263.418,220.286 261.840,220.063 261.277 C 219.114 258.879,218.608 255.717,219.110 255.324 C 219.532 254.994,219.534 254.934,219.133 254.635 C 218.448 254.125,217.789 252.654,217.598 251.211 C 217.503 250.488,217.212 249.586,216.952 249.207 C 216.693 248.828,216.400 247.890,216.301 247.123 C 216.202 246.356,215.875 245.025,215.573 244.166 C 215.271 243.308,215.024 242.346,215.024 242.028 C 215.024 241.589,214.900 241.491,214.505 241.616 C 213.618 241.898,212.840 236.532,213.631 235.580 C 214.007 235.126,213.606 233.617,212.360 230.800 C 210.970 227.656,210.020 223.464,210.358 221.965 C 210.542 221.148,210.471 220.862,209.926 220.213 C 208.213 218.178,208.998 212.819,211.009 212.819 C 211.241 212.819,211.513 212.478,211.614 212.061 C 211.715 211.644,212.278 210.694,212.864 209.951 C 213.749 208.830,213.903 208.453,213.769 207.738 C 213.654 207.122,213.759 206.683,214.140 206.195 C 214.433 205.820,214.767 205.203,214.881 204.824 C 215.694 202.142,220.804 196.274,222.721 195.822 C 223.112 195.730,223.680 195.437,223.983 195.171 C 224.287 194.904,225.031 194.423,225.637 194.101 C 226.834 193.466,227.115 193.299,229.290 191.925 C 231.014 190.837,231.029 190.742,229.716 189.282 C 227.514 186.834,227.989 186.850,223.877 189.090 C 223.481 189.306,222.620 189.583,221.965 189.706 C 221.310 189.829,220.440 190.166,220.033 190.456 C 216.266 193.138,213.763 190.842,216.300 187.030 C 217.001 185.976,217.746 184.564,217.955 183.893 C 218.164 183.222,218.506 182.478,218.714 182.239 C 218.923 182.001,219.285 181.185,219.519 180.427 C 220.186 178.265,221.184 175.807,221.708 175.035 C 224.321 171.182,222.473 167.246,218.902 169.060 C 218.224 169.404,216.433 172.108,216.413 172.817 C 216.398 173.359,214.458 177.337,214.047 177.671 C 213.860 177.822,213.495 178.407,213.236 178.970 C 212.977 179.533,212.540 180.065,212.264 180.153 C 211.988 180.240,211.604 180.710,211.410 181.197 L 211.058 182.081 210.956 181.028 C 210.899 180.449,210.969 179.829,211.109 179.650 C 211.250 179.471,211.583 178.394,211.849 177.257 C 212.115 176.120,212.511 174.904,212.729 174.555 C 212.947 174.206,213.304 172.779,213.522 171.385 C 213.740 169.990,214.112 168.212,214.349 167.434 C 215.063 165.087,214.809 163.212,213.674 162.449 C 212.568 161.706,212.754 161.709,211.027 162.405 M207.148 169.840 C 207.133 171.390,206.983 172.146,206.527 172.980 C 206.197 173.584,205.926 174.205,205.925 174.358 C 205.921 175.112,205.314 176.700,205.085 176.559 C 204.550 176.228,204.777 172.606,205.364 172.103 C 205.730 171.790,206.008 170.991,206.230 169.615 C 206.658 166.962,207.174 167.089,207.148 169.840 M82.342 198.343 C 82.594 198.871,82.849 199.255,82.909 199.195 C 83.035 199.069,82.198 197.381,82.010 197.381 C 81.940 197.381,82.090 197.814,82.342 198.343 M133.391 200.069 C 131.911 201.698,131.713 203.208,132.620 205.971 C 133.062 207.317,133.229 208.717,133.346 212.060 C 133.474 215.723,133.576 216.492,134.000 216.981 C 134.672 217.755,134.967 219.822,134.540 220.760 C 134.105 221.713,133.747 221.150,133.509 219.136 C 133.412 218.321,133.182 217.670,132.960 217.585 C 132.494 217.406,131.771 216.064,131.771 215.378 C 131.771 215.103,131.540 214.446,131.257 213.917 C 130.974 213.389,130.609 212.336,130.446 211.578 C 129.279 206.166,127.924 204.016,125.669 204.002 C 124.170 203.992,123.134 207.141,123.841 209.554 C 124.079 210.364,124.469 212.019,124.709 213.232 C 125.312 216.278,126.345 219.883,127.041 221.365 C 127.362 222.047,127.627 222.942,127.630 223.353 C 127.633 223.764,127.889 224.743,128.199 225.528 C 128.788 227.023,129.464 232.487,129.194 233.566 C 128.706 235.509,127.333 235.207,126.101 232.886 C 125.247 231.278,121.397 227.397,119.848 226.583 L 118.815 226.040 118.827 227.355 C 118.833 228.078,118.963 229.600,119.115 230.737 C 119.268 231.875,119.491 233.839,119.612 235.104 C 119.804 237.112,119.923 237.478,120.556 237.998 C 121.412 238.702,122.400 240.143,122.951 241.489 C 123.171 242.025,124.940 244.066,126.938 246.087 C 132.098 251.307,134.308 253.718,134.625 254.473 C 134.794 254.876,134.885 258.467,134.858 263.680 C 134.835 268.380,134.884 273.001,134.969 273.949 L 135.123 275.672 144.438 275.672 L 153.753 275.672 153.915 274.673 C 154.004 274.124,153.902 271.674,153.689 269.229 C 153.166 263.236,153.132 261.640,153.500 260.506 C 153.672 259.978,153.999 258.305,154.227 256.788 C 154.455 255.272,154.770 253.598,154.928 253.067 C 155.792 250.155,156.029 219.859,155.208 217.092 C 155.029 216.485,154.638 214.935,154.341 213.646 C 153.663 210.707,152.589 209.386,151.118 209.680 C 149.673 209.969,149.582 210.415,149.644 216.954 C 149.717 224.673,149.381 225.938,147.919 223.444 C 147.303 222.391,147.143 221.675,146.921 218.952 C 146.596 214.959,146.434 213.973,145.958 213.094 C 145.753 212.715,145.461 211.165,145.310 209.649 C 144.661 203.158,141.659 199.765,139.083 202.611 C 138.440 203.322,138.247 203.169,137.695 201.508 C 136.961 199.297,134.761 198.561,133.391 200.069 M84.080 201.943 C 84.080 202.281,84.899 203.647,85.301 203.981 C 85.553 204.190,85.437 203.810,85.020 203.065 C 84.366 201.895,84.080 201.554,84.080 201.943 M91.097 210.853 C 91.696 211.479,92.226 211.992,92.275 211.992 C 92.561 211.992,91.363 210.575,90.746 210.183 C 90.180 209.824,90.262 209.981,91.097 210.853 " stroke="none" fill="#4248d3" fill-rule="evenodd"></path></g></svg>