<?xml version="1.0" standalone="no"?>
<!DOCTYPE svg PUBLIC "-//W3C//DTD SVG 20010904//EN"
 "http://www.w3.org/TR/2001/REC-SVG-20010904/DTD/svg10.dtd">
<svg version="1.0" xmlns="http://www.w3.org/2000/svg"
 width="300.000000pt" height="168.000000pt" viewBox="0 0 300.000000 168.000000"
 preserveAspectRatio="xMidYMid meet">
<metadata>
Created by potrace 1.15, written by Peter Selinger 2001-2017
</metadata>
<g transform="translate(0.000000,168.000000) scale(0.100000,-0.100000)"
fill="#000000" stroke="none">
<path d="M2490 1586 c0 -48 -24 -76 -33 -38 -2 9 -3 -7 -2 -36 1 -30 6 -57 12
-60 6 -4 14 -23 18 -44 6 -31 4 -37 -14 -43 -20 -6 -21 -14 -21 -111 0 -105 0
-105 -22 -98 -13 3 -30 13 -39 20 -42 38 -125 -14 -143 -89 -4 -19 -3 -26 4
-22 5 3 10 -1 10 -10 0 -10 -5 -13 -12 -9 -10 6 -10 4 0 -8 7 -8 10 -23 6 -31
-4 -11 4 -25 22 -41 l29 -24 17 29 c22 36 37 38 30 4 -2 -14 -7 -25 -11 -25
-6 0 -13 -67 -14 -148 0 -21 -3 -28 -9 -20 -12 19 -29 -10 -27 -47 4 -64 0
-72 -16 -41 -15 28 -14 34 10 99 36 99 35 106 -20 105 -37 0 -49 -5 -63 -25
-9 -14 -36 -45 -60 -69 -36 -36 -49 -43 -81 -42 -21 0 -47 -3 -59 -6 -17 -6
-23 -2 -28 19 -8 33 4 115 18 115 6 0 8 -9 5 -20 -3 -11 -1 -18 4 -14 5 3 10
-10 11 -28 1 -18 4 57 8 167 4 110 5 206 2 213 -2 7 -23 12 -56 11 -45 0 -48
-2 -25 -10 20 -7 26 -15 22 -29 -7 -25 -30 -26 -36 -2 -4 14 -5 13 -6 -3 0
-12 4 -26 11 -33 9 -9 7 -16 -7 -32 -22 -25 -12 -39 16 -21 12 7 24 10 27 6 4
-3 0 -10 -7 -14 -10 -7 -7 -17 13 -49 17 -27 26 -55 26 -79 l-1 -38 -16 30
c-14 24 -18 26 -21 13 -4 -21 -13 -23 -30 -6 -10 10 -17 10 -32 0 -11 -6 -28
-12 -37 -12 -15 0 -16 -2 -3 -10 8 -5 25 -10 38 -10 15 0 22 -6 22 -20 0 -17
-3 -19 -19 -10 -11 5 -26 7 -35 4 -8 -3 -28 3 -43 14 -28 19 -89 36 -174 47
-37 5 -48 11 -54 28 -8 25 -17 74 -18 99 -1 13 -5 14 -14 6 -15 -12 -18 -52
-3 -43 6 3 10 -1 10 -10 0 -9 -6 -15 -12 -13 -15 5 -24 78 -11 78 5 0 10 17
10 38 1 20 6 78 11 127 11 98 8 105 -40 105 -31 0 -58 -23 -58 -52 0 -11 -11
-52 -24 -91 -16 -48 -26 -106 -30 -171 -7 -112 -16 -140 -16 -49 0 63 -9 75
-52 65 -15 -3 -18 -15 -18 -80 0 -68 -7 -107 -31 -167 -4 -11 -10 -27 -12 -35
-3 -8 -6 5 -6 29 -1 35 -7 49 -35 77 -36 36 -90 46 -114 22 -7 -7 -12 -9 -12
-5 0 4 -9 3 -21 -4 -14 -7 -19 -17 -16 -30 3 -10 1 -17 -4 -13 -12 7 -11 -27
1 -46 9 -13 11 -13 21 0 14 20 4 -135 -11 -170 -9 -21 -10 -18 -6 20 3 25 8
65 12 89 6 35 4 43 -7 39 -7 -2 -14 -15 -14 -29 -1 -13 -2 -43 -3 -67 -1 -26
-6 -41 -12 -37 -5 3 -10 0 -10 -7 -1 -7 -7 -26 -16 -43 -10 -22 -13 -24 -10
-8 2 13 -4 39 -15 60 -10 20 -22 51 -25 69 -6 33 -36 68 -76 88 -19 9 -24 23
-29 68 -5 42 -13 63 -33 84 -37 40 -51 67 -71 148 -32 130 -61 163 -134 150
-47 -9 -93 -35 -87 -51 3 -7 1 -13 -4 -13 -6 0 -10 -10 -10 -22 -1 -21 -2 -22
-14 -6 -12 17 -14 17 -28 0 -9 -9 -18 -37 -21 -62 -3 -25 -9 -54 -13 -63 -4
-12 -1 -17 10 -17 9 0 16 8 16 21 0 11 4 18 9 14 5 -3 12 9 14 27 l4 33 1 -32
c1 -18 -7 -55 -18 -83 -12 -30 -20 -75 -20 -108 0 -70 -8 -102 -24 -96 -6 2
-17 -5 -24 -16 -11 -17 -10 -20 7 -20 10 0 32 -7 47 -15 16 -8 37 -12 46 -9
12 4 15 0 11 -16 -3 -12 0 -20 7 -20 7 0 9 -8 5 -22 -4 -16 -4 -19 3 -9 5 7
15 10 21 7 16 -10 14 -39 -2 -33 -8 3 -20 1 -27 -3 -11 -7 -10 -14 5 -36 19
-30 22 -29 -33 -7 -6 3 -12 1 -12 -5 0 -6 4 -12 9 -14 8 -3 61 -83 61 -92 0
-11 -36 8 -62 32 -39 36 -45 21 -9 -21 17 -19 31 -39 31 -45 0 -5 16 -24 37
-41 38 -32 34 -43 -5 -15 -32 22 -38 11 -13 -25 l22 -31 -40 -6 c-37 -6 -59
-24 -29 -24 6 0 8 -3 5 -7 -4 -3 1 -12 11 -19 15 -12 15 -15 2 -24 -12 -8 -13
-10 -1 -10 25 0 1 -15 -42 -25 l-42 -10 2 -78 2 -77 -27 6 c-42 10 -49 18 -22
25 l25 7 -25 1 c-20 1 -22 3 -10 11 10 6 14 21 12 41 -4 34 -46 109 -62 109
-5 0 -16 15 -25 33 -11 25 -13 40 -5 67 11 37 6 46 -25 52 -16 3 -21 14 -27
62 -4 32 -10 61 -12 64 -3 2 0 14 6 26 13 23 18 167 6 159 -5 -2 -8 0 -8 6 0
44 -150 141 -217 141 l-33 0 0 -360 c0 -315 2 -359 15 -354 8 4 15 13 15 20 0
28 46 39 90 21 41 -16 52 -10 25 13 -8 7 -15 17 -15 22 0 16 35 4 36 -12 1 -8
2 -23 3 -32 0 -10 15 -33 32 -53 18 -20 29 -38 26 -41 -7 -7 -57 25 -57 36 0
5 -15 4 -32 -1 -18 -5 -57 -9 -85 -9 l-53 0 0 -70 0 -70 559 0 559 0 -14 29
c-12 25 -13 33 -2 50 15 25 26 27 35 5 4 -12 8 -13 14 -3 4 7 1 22 -7 33 -18
26 -19 46 -1 22 12 -16 16 -15 53 22 32 32 50 42 89 47 80 12 105 29 105 71 0
33 2 36 24 30 13 -3 43 -14 67 -25 l44 -20 -42 0 c-70 -1 -93 -15 -93 -56 0
-19 -4 -35 -10 -35 -5 0 -17 -11 -26 -25 -15 -23 -15 -27 -1 -43 14 -15 15
-21 3 -38 -7 -10 -16 -29 -20 -41 l-7 -23 225 0 226 0 0 33 c0 37 15 57 42 57
23 0 23 10 1 50 -17 30 -17 32 0 45 18 13 18 15 1 39 -9 15 -13 30 -9 34 7 7
19 -7 67 -76 17 -24 47 -49 80 -66 52 -26 176 -50 204 -39 17 6 44 -14 44 -34
0 -10 -6 -12 -22 -7 -23 7 -23 6 -4 -15 16 -18 30 -21 94 -21 70 0 74 1 69 20
-5 20 -1 21 75 19 71 -1 79 -4 75 -20 -5 -17 9 -18 249 -19 l255 -1 -1 216
c-1 118 -3 215 -5 215 -16 0 -35 -38 -35 -71 0 -21 -3 -39 -7 -39 -9 0 -33
-49 -33 -67 0 -8 12 -13 29 -13 23 0 30 -5 34 -28 3 -15 4 -28 3 -29 -2 -3
-119 -1 -216 2 -47 2 -100 0 -118 -5 -24 -6 -40 -4 -60 7 l-27 15 31 -6 c17
-3 36 0 41 5 6 6 45 9 92 7 70 -3 81 -1 81 13 0 24 -21 29 -116 29 -76 0 -84
2 -84 19 0 16 5 19 26 15 14 -3 31 -1 38 5 6 5 20 11 31 14 19 4 19 5 -1 6
-27 1 -27 4 -51 281 l-18 215 -6 -90 c-4 -49 -7 -141 -8 -204 -1 -108 -10
-141 -18 -69 -20 175 -27 300 -23 458 3 156 -3 250 -15 250 -8 0 -15 31 -20
92 -4 51 -14 106 -22 122 -12 22 -15 58 -14 138 1 67 -3 108 -9 108 -5 0 -10
-11 -10 -24z m-535 -877 c0 -15 -7 -25 -18 -27 -51 -10 -93 -94 -69 -139 9
-16 6 -29 -10 -59 -27 -52 -26 -51 -51 -24 -33 36 -38 55 -26 109 10 48 50 97
124 149 36 26 50 23 50 -9z m-985 -507 c0 -7 7 -15 15 -18 13 -5 75 -93 75
-107 0 -4 -24 -8 -52 -9 l-53 -1 65 -6 c52 -5 66 -10 68 -24 3 -16 -3 -17 -65
-11 -37 4 -72 11 -78 16 -5 5 -10 56 -11 114 0 104 0 105 18 82 9 -13 18 -29
18 -36z"/>
<path d="M1673 1301 c-18 -10 -40 -24 -48 -31 -17 -14 -21 -35 -5 -25 6 3 10
2 10 -2 0 -5 -9 -14 -21 -21 -12 -8 -20 -22 -19 -35 4 -40 0 -58 -10 -52 -5 3
-10 -1 -10 -10 0 -9 5 -13 10 -10 9 6 12 -4 15 -60 1 -11 8 -35 15 -52 13 -28
21 -33 60 -39 25 -4 63 -9 85 -13 38 -6 41 -5 50 22 6 16 13 27 16 25 15 -7
49 37 49 63 0 21 4 27 15 22 13 -4 15 1 10 33 -4 22 -2 51 4 66 17 45 -18 123
-43 98 -17 -17 -48 -11 -53 9 -3 12 -17 21 -41 25 -50 8 -52 8 -89 -13z"/>
</g>
</svg>
